<svg width="618" height="755" viewBox="0 0 618 755" fill="none" xmlns="http://www.w3.org/2000/svg">
<path d="M528.861 123.16L525.932 143.946L458.803 617.49H132.494L199.623 143.946L202.577 123.16C203.674 116.375 207.101 110.185 212.268 105.655C217.435 101.125 224.018 98.5394 230.885 98.3423H507.586C510.716 98.2537 513.827 98.8661 516.691 100.135C519.555 101.403 522.099 103.296 524.138 105.675C526.177 108.053 527.66 110.858 528.477 113.883C529.294 116.908 529.425 120.078 528.861 123.16Z" fill="white"/>
<path d="M458.804 618.742H132.495C132.315 618.744 132.137 618.706 131.973 618.633C131.808 618.559 131.662 618.451 131.543 618.316C131.427 618.179 131.34 618.019 131.288 617.847C131.237 617.674 131.221 617.493 131.243 617.315L201.326 122.985C202.468 115.894 206.044 109.422 211.439 104.682C216.833 99.9431 223.71 97.2319 230.885 97.015H507.586C510.853 96.9317 514.098 97.5606 517.098 98.8579C520.097 100.155 522.779 102.09 524.956 104.528C527.118 107.072 528.699 110.057 529.59 113.275C530.48 116.493 530.658 119.866 530.112 123.16L527.184 143.946L460.03 617.665C459.988 617.962 459.841 618.234 459.616 618.431C459.391 618.629 459.103 618.739 458.804 618.742ZM133.921 616.238H457.702L527.635 122.885C528.129 119.948 527.977 116.939 527.191 114.067C526.404 111.196 525.001 108.53 523.079 106.256C521.146 104.067 518.757 102.327 516.081 101.159C513.404 99.9912 510.505 99.4229 507.586 99.4943H230.885C224.319 99.6929 218.027 102.17 213.086 106.502C208.145 110.833 204.863 116.749 203.803 123.235L200.875 144.021L133.921 616.238Z" fill="#231F20"/>
<path d="M342.266 344.042H199.098C198.738 344.028 198.397 343.875 198.147 343.616C198.035 343.477 197.952 343.316 197.905 343.144C197.858 342.972 197.846 342.792 197.871 342.615L219.122 193.707C219.169 193.408 219.321 193.136 219.55 192.939C219.779 192.742 220.071 192.632 220.373 192.63H363.491C363.672 192.629 363.85 192.666 364.014 192.739C364.179 192.813 364.326 192.921 364.445 193.057C364.563 193.192 364.651 193.352 364.703 193.525C364.754 193.697 364.768 193.879 364.743 194.058L343.643 342.965C343.593 343.286 343.423 343.576 343.168 343.776C342.912 343.976 342.59 344.071 342.266 344.042ZM200.575 341.538H341.19L361.94 195.135H221.324L200.575 341.538Z" fill="#D1D3D4"/>
<path d="M478.226 195.135H401.836C401.505 195.135 401.186 195.003 400.952 194.768C400.717 194.533 400.585 194.215 400.585 193.882C400.585 193.55 400.717 193.232 400.952 192.997C401.186 192.762 401.505 192.63 401.836 192.63H478.251C478.583 192.63 478.902 192.762 479.136 192.997C479.371 193.232 479.503 193.55 479.503 193.882C479.503 194.049 479.47 194.214 479.405 194.367C479.341 194.521 479.246 194.66 479.128 194.777C479.009 194.893 478.868 194.985 478.713 195.047C478.558 195.108 478.393 195.138 478.226 195.135Z" fill="#D1D3D4"/>
<path d="M475.423 214.944H399.008C398.676 214.944 398.358 214.812 398.123 214.577C397.889 214.342 397.757 214.024 397.757 213.692C397.757 213.36 397.889 213.041 398.123 212.806C398.358 212.571 398.676 212.44 399.008 212.44H475.423C475.755 212.44 476.073 212.571 476.308 212.806C476.543 213.041 476.675 213.36 476.675 213.692C476.675 214.024 476.543 214.342 476.308 214.577C476.073 214.812 475.755 214.944 475.423 214.944Z" fill="#D1D3D4"/>
<path d="M472.62 234.753H396.18C395.85 234.747 395.536 234.613 395.302 234.379C395.069 234.146 394.935 233.831 394.929 233.501C394.929 233.169 395.061 232.85 395.295 232.616C395.53 232.381 395.848 232.249 396.18 232.249H472.62C472.952 232.249 473.27 232.381 473.505 232.616C473.74 232.85 473.871 233.169 473.871 233.501C473.871 233.833 473.74 234.152 473.505 234.386C473.27 234.621 472.952 234.753 472.62 234.753Z" fill="#D1D3D4"/>
<path d="M469.816 254.588H393.376C393.045 254.588 392.726 254.456 392.492 254.221C392.257 253.986 392.125 253.667 392.125 253.335C392.125 253.003 392.257 252.685 392.492 252.45C392.726 252.215 393.045 252.083 393.376 252.083H469.816C470.148 252.083 470.467 252.215 470.701 252.45C470.936 252.685 471.068 253.003 471.068 253.335C471.068 253.667 470.936 253.986 470.701 254.221C470.467 254.456 470.148 254.588 469.816 254.588Z" fill="#D1D3D4"/>
<path d="M466.913 274.397H390.573C390.241 274.397 389.923 274.265 389.688 274.03C389.453 273.795 389.321 273.477 389.321 273.145C389.321 272.812 389.453 272.494 389.688 272.259C389.923 272.024 390.241 271.892 390.573 271.892H466.913C467.244 271.892 467.563 272.024 467.797 272.259C468.032 272.494 468.164 272.812 468.164 273.145C468.164 273.477 468.032 273.795 467.797 274.03C467.563 274.265 467.244 274.397 466.913 274.397Z" fill="#D1D3D4"/>
<path d="M442.084 294.231H387.745C387.415 294.225 387.1 294.091 386.867 293.857C386.633 293.624 386.5 293.309 386.493 292.979C386.493 292.647 386.625 292.328 386.86 292.093C387.094 291.859 387.413 291.727 387.745 291.727H442.084C442.416 291.727 442.734 291.859 442.969 292.093C443.203 292.328 443.335 292.647 443.335 292.979C443.335 293.311 443.203 293.629 442.969 293.864C442.734 294.099 442.416 294.231 442.084 294.231Z" fill="#D1D3D4"/>
<path d="M452.746 342.79H385.167C383.396 342.837 381.636 342.488 380.017 341.769C378.397 341.05 376.958 339.979 375.805 338.633C374.652 337.287 373.813 335.7 373.35 333.989C372.887 332.278 372.811 330.485 373.128 328.741C373.753 324.903 375.694 321.402 378.617 318.839C381.539 316.275 385.262 314.809 389.147 314.691H456.726C458.499 314.64 460.262 314.986 461.885 315.704C463.507 316.421 464.949 317.492 466.105 318.839C467.262 320.185 468.103 321.773 468.567 323.486C469.032 325.199 469.108 326.994 468.79 328.741C468.164 332.583 466.22 336.087 463.292 338.65C460.364 341.214 456.636 342.678 452.746 342.79Z" fill="#D1D3D4"/>
<path d="M262.298 538.603H194.718C192.945 538.655 191.184 538.31 189.562 537.592C187.94 536.874 186.499 535.803 185.345 534.456C184.19 533.109 183.352 531.52 182.891 529.807C182.429 528.094 182.357 526.299 182.679 524.554C183.305 520.716 185.245 517.216 188.168 514.652C191.09 512.089 194.813 510.623 198.698 510.505H266.277C268.05 510.453 269.812 510.799 271.433 511.516C273.055 512.234 274.496 513.305 275.65 514.652C276.805 515.999 277.643 517.588 278.105 519.301C278.566 521.014 278.638 522.809 278.316 524.554C277.695 528.394 275.756 531.898 272.833 534.462C269.909 537.026 266.184 538.49 262.298 538.603Z" fill="#D1D3D4"/>
<path d="M415.778 538.603H348.199C346.426 538.655 344.664 538.31 343.042 537.592C341.42 536.874 339.98 535.803 338.825 534.456C337.671 533.109 336.832 531.52 336.371 529.807C335.91 528.094 335.837 526.299 336.159 524.554C336.78 520.714 338.72 517.211 341.643 514.647C344.567 512.083 348.292 510.618 352.178 510.505H419.758C421.53 510.453 423.292 510.799 424.914 511.516C426.536 512.234 427.977 513.305 429.131 514.652C430.285 515.999 431.124 517.588 431.585 519.301C432.046 521.014 432.119 522.809 431.797 524.554C431.176 528.394 429.237 531.898 426.313 534.462C423.389 537.026 419.664 538.49 415.778 538.603Z" fill="#D1D3D4"/>
<path d="M292.258 492.549H178.073C177.893 492.543 177.715 492.499 177.551 492.422C177.388 492.344 177.242 492.234 177.122 492.098C177.005 491.967 176.919 491.811 176.871 491.642C176.824 491.472 176.815 491.294 176.847 491.121L191.865 384.562C191.912 384.264 192.064 383.991 192.293 383.794C192.522 383.597 192.814 383.488 193.116 383.485H307.275C307.455 383.482 307.634 383.519 307.798 383.592C307.963 383.666 308.109 383.775 308.227 383.911C308.347 384.046 308.437 384.205 308.489 384.378C308.541 384.552 308.554 384.734 308.527 384.913L293.509 491.472C293.462 491.771 293.31 492.043 293.081 492.24C292.852 492.437 292.56 492.547 292.258 492.549ZM179.625 490.045H291.282L306.024 385.99H194.267L179.625 490.045Z" fill="#D1D3D4"/>
<path d="M445.738 492.549H331.554C331.372 492.546 331.194 492.504 331.03 492.426C330.866 492.348 330.72 492.237 330.603 492.098C330.487 491.966 330.4 491.81 330.348 491.642C330.297 491.474 330.281 491.296 330.302 491.121L345.32 384.562C345.362 384.266 345.509 383.994 345.734 383.796C345.959 383.599 346.247 383.488 346.546 383.485H460.731C460.911 383.482 461.089 383.519 461.254 383.592C461.418 383.666 461.564 383.775 461.682 383.911C461.803 384.046 461.892 384.205 461.944 384.378C461.996 384.552 462.009 384.734 461.982 384.913L446.964 491.472C446.923 491.769 446.776 492.04 446.551 492.238C446.326 492.436 446.037 492.546 445.738 492.549ZM333.106 490.045H444.737L459.504 385.99H347.748L333.106 490.045Z" fill="#D1D3D4"/>
<path d="M266.803 581.578C266.046 581.591 265.296 581.438 264.604 581.131C263.913 580.824 263.296 580.37 262.798 579.8C262.298 579.216 261.932 578.531 261.725 577.791C261.517 577.052 261.474 576.276 261.596 575.517C261.843 573.953 262.634 572.525 263.828 571.485C265.023 570.445 266.546 569.86 268.129 569.833C268.883 569.822 269.63 569.973 270.321 570.275C271.012 570.577 271.63 571.024 272.134 571.586C272.633 572.169 272.998 572.855 273.201 573.595C273.404 574.335 273.442 575.112 273.31 575.868C273.074 577.435 272.291 578.869 271.1 579.914C269.909 580.959 268.386 581.548 266.803 581.578ZM268.129 572.337C267.153 572.378 266.22 572.75 265.483 573.391C264.746 574.033 264.25 574.906 264.074 575.868C264.005 576.274 264.024 576.691 264.132 577.089C264.241 577.487 264.434 577.857 264.7 578.172C264.964 578.466 265.289 578.698 265.652 578.854C266.015 579.01 266.408 579.084 266.803 579.074C267.781 579.035 268.715 578.66 269.449 578.012C270.183 577.365 270.672 576.483 270.832 575.517C270.905 575.117 270.889 574.705 270.785 574.311C270.681 573.917 270.492 573.551 270.232 573.238C269.967 572.945 269.642 572.712 269.279 572.557C268.916 572.401 268.524 572.326 268.129 572.337Z" fill="#D1D3D4"/>
<path d="M294.1 578.879C296.102 577.013 296.412 574.088 294.791 572.348C293.171 570.607 290.233 570.709 288.231 572.576C286.228 574.442 285.918 577.367 287.539 579.107C289.16 580.848 292.097 580.746 294.1 578.879Z" fill="#D1D3D4"/>
<path d="M316.04 578.708C318.038 576.846 318.347 573.929 316.73 572.192C315.114 570.455 312.183 570.557 310.185 572.419C308.187 574.282 307.878 577.199 309.495 578.936C311.112 580.672 314.042 580.571 316.04 578.708Z" fill="#D1D3D4"/>
<path d="M341.563 578.871C343.566 577.004 343.876 574.08 342.255 572.339C340.635 570.598 337.697 570.701 335.695 572.567C333.692 574.434 333.382 577.358 335.003 579.099C336.623 580.84 339.561 580.737 341.563 578.871Z" fill="#D1D3D4"/>
<path d="M249.682 158.847H230.785C230.453 158.847 230.134 158.715 229.9 158.48C229.665 158.245 229.533 157.927 229.533 157.595C229.533 157.263 229.665 156.944 229.9 156.709C230.134 156.475 230.453 156.343 230.785 156.343H249.682C250.014 156.343 250.332 156.475 250.567 156.709C250.802 156.944 250.933 157.263 250.933 157.595C250.933 157.927 250.802 158.245 250.567 158.48C250.332 158.715 250.014 158.847 249.682 158.847Z" fill="#D1D3D4"/>
<path d="M248.481 167.362H229.559C229.229 167.355 228.915 167.221 228.681 166.988C228.448 166.754 228.314 166.439 228.308 166.109C228.308 165.777 228.439 165.459 228.674 165.224C228.909 164.989 229.227 164.857 229.559 164.857H248.481C248.813 164.857 249.132 164.989 249.366 165.224C249.601 165.459 249.733 165.777 249.733 166.109C249.726 166.439 249.593 166.754 249.359 166.988C249.126 167.221 248.811 167.355 248.481 167.362Z" fill="#D1D3D4"/>
<path d="M247.254 175.851H228.357C228.025 175.851 227.707 175.719 227.472 175.485C227.237 175.25 227.105 174.931 227.105 174.599C227.112 174.269 227.246 173.954 227.479 173.721C227.712 173.487 228.027 173.353 228.357 173.347H247.254C247.586 173.347 247.904 173.479 248.139 173.714C248.374 173.949 248.506 174.267 248.506 174.599C248.506 174.931 248.374 175.25 248.139 175.485C247.904 175.719 247.586 175.851 247.254 175.851Z" fill="#D1D3D4"/>
<path d="M528.861 123.16L525.933 143.946H199.624L202.577 123.16C203.675 116.375 207.102 110.185 212.269 105.655C217.436 101.125 224.019 98.5394 230.886 98.3423H507.586C510.717 98.2537 513.828 98.8661 516.692 100.135C519.556 101.403 522.1 103.296 524.139 105.675C526.178 108.053 527.661 110.858 528.478 113.883C529.295 116.908 529.426 120.078 528.861 123.16Z" fill="#231F20"/>
<path d="M373.528 122.409H337.585C337.254 122.409 336.935 122.277 336.701 122.042C336.466 121.807 336.334 121.489 336.334 121.157C336.334 120.825 336.466 120.506 336.701 120.271C336.935 120.036 337.254 119.905 337.585 119.905H373.528C373.86 119.905 374.178 120.036 374.413 120.271C374.647 120.506 374.779 120.825 374.779 121.157C374.779 121.489 374.647 121.807 374.413 122.042C374.178 122.277 373.86 122.409 373.528 122.409Z" fill="#D1D3D4"/>
<path d="M391.825 122.409H385.467C385.137 122.402 384.823 122.268 384.589 122.035C384.356 121.802 384.222 121.487 384.216 121.157C384.216 120.825 384.348 120.506 384.582 120.271C384.817 120.036 385.135 119.905 385.467 119.905H391.825C392.157 119.905 392.475 120.036 392.71 120.271C392.944 120.506 393.076 120.825 393.076 121.157C393.076 121.489 392.944 121.807 392.71 122.042C392.475 122.277 392.157 122.409 391.825 122.409Z" fill="#D1D3D4"/>
<path d="M195.844 285.992L219.172 310.083C219.172 310.083 261.272 264.079 261.722 258.319C263.033 247.981 265.92 237.905 270.282 228.442C270.472 227.838 270.883 227.328 271.433 227.015C272.76 226.514 273.711 228.367 273.936 229.77C274.358 233.19 274.316 236.653 273.811 240.062C277.991 234.277 282.246 228.567 286.626 222.933C286.785 222.649 287.004 222.403 287.268 222.212C287.531 222.022 287.834 221.892 288.153 221.831C288.642 221.861 289.103 222.066 289.455 222.407C292.215 224.765 294.283 227.829 295.437 231.272C296.185 233.097 296.617 235.037 296.713 237.007C296.888 248.076 286.977 266.057 276.69 270.59C276.69 270.59 228.783 352.732 220.173 351.78C211.563 350.829 177.623 312.488 177.623 312.488L195.844 285.992Z" fill="white"/>
<path d="M220.198 353.033H219.997C211.162 352.031 180.1 317.271 176.571 313.314C176.397 313.093 176.302 312.819 176.302 312.538C176.302 312.256 176.397 311.982 176.571 311.761L194.893 285.291C195 285.141 195.139 285.017 195.299 284.926C195.458 284.836 195.636 284.78 195.819 284.765C196.003 284.748 196.189 284.772 196.363 284.838C196.536 284.903 196.692 285.006 196.82 285.14L219.222 308.255C235.416 290.5 260.27 262.025 260.62 258.169C261.927 247.717 264.814 237.525 269.18 227.941C269.336 227.489 269.58 227.073 269.898 226.716C270.216 226.359 270.602 226.069 271.033 225.863C271.385 225.725 271.764 225.67 272.141 225.7C272.519 225.731 272.884 225.846 273.21 226.038C273.788 226.476 274.265 227.034 274.606 227.674C274.947 228.314 275.146 229.02 275.187 229.744C275.417 231.756 275.509 233.781 275.463 235.805C278.792 231.247 282.196 226.714 285.65 222.282C285.92 221.846 286.286 221.477 286.719 221.204C287.153 220.931 287.643 220.76 288.153 220.704C288.938 220.737 289.688 221.038 290.28 221.555C293.214 224.013 295.435 227.213 296.713 230.821C297.504 232.785 297.961 234.867 298.064 236.982C298.24 248.076 288.703 266.383 277.64 271.567C269.18 286.067 229.484 353.033 220.198 353.033ZM179.074 312.387C192.665 327.639 214.366 349.952 220.248 350.528C225.404 350.528 252.26 309.708 275.463 269.939C275.596 269.709 275.797 269.525 276.038 269.413C286.175 264.955 295.511 247.375 295.336 237.007C295.255 235.174 294.857 233.37 294.16 231.673C293.065 228.458 291.129 225.596 288.553 223.383C288.228 223.108 288.103 223.058 288.053 223.058C287.846 223.236 287.661 223.438 287.502 223.659C283.147 229.269 278.842 235.029 274.687 240.789C274.523 241.018 274.286 241.184 274.015 241.262C273.744 241.34 273.455 241.324 273.194 241.217C272.934 241.109 272.717 240.917 272.579 240.671C272.441 240.426 272.39 240.14 272.434 239.862C272.931 236.544 272.973 233.174 272.559 229.845C272.522 229.193 272.246 228.578 271.783 228.117C271.591 228.344 271.446 228.608 271.358 228.893C267.051 238.229 264.198 248.169 262.898 258.369C262.372 264.254 227.056 303.121 219.972 310.96C219.736 311.207 219.413 311.35 219.071 311.361C218.731 311.337 218.406 311.206 218.145 310.985L195.894 287.995L179.074 312.387Z" fill="#231F20"/>
<path d="M31.4008 631.364C31.4008 631.364 23.2662 653.652 26.8704 655.806C30.4747 657.96 102.309 655.806 97.9791 651.499C93.649 647.191 74.5265 632.816 74.5265 632.816" fill="white"/>
<path d="M43.3396 657.835C34.1538 657.835 27.2457 657.509 26.1944 656.883C22.2898 654.554 27.0454 639.628 30.1991 630.938C30.3225 630.628 30.5601 630.377 30.8628 630.238C31.1655 630.098 31.5103 630.08 31.8261 630.187C32.1334 630.305 32.3819 630.539 32.5178 630.839C32.6537 631.139 32.6659 631.481 32.5519 631.789C28.5472 642.834 26.1694 653.552 27.546 654.754C32.5519 656.983 88.7431 654.353 96.4021 651.699C91.1209 646.815 73.8756 633.943 73.8756 633.818C73.7441 633.719 73.6333 633.596 73.5496 633.454C73.4658 633.313 73.4108 633.156 73.3876 632.993C73.3406 632.665 73.4261 632.331 73.6253 632.065C73.8244 631.799 74.1209 631.624 74.4495 631.577C74.778 631.53 75.1118 631.615 75.3773 631.815C76.1532 632.391 94.65 646.29 98.9801 650.622C99.2935 650.914 99.4855 651.313 99.518 651.74C99.5505 652.167 99.421 652.59 99.1553 652.926C96.4772 656.207 64.089 657.835 43.3396 657.835Z" fill="#231F20"/>
<path d="M103.986 205.828C100.582 205.678 97.1776 205.102 93.2479 204.751C89.3183 204.401 84.8631 203.073 84.788 199.417C84.788 196.262 88.4924 193.657 87.6664 190.627C87.3757 189.809 86.9342 189.053 86.3648 188.398C81.1282 181.366 78.8133 172.58 79.9051 163.878C80.9968 155.177 85.4103 147.236 92.2217 141.717C91.1955 142.068 90.0942 141.041 89.9941 139.964C89.9873 138.864 90.4092 137.804 91.1705 137.009C93.9309 133.974 97.5137 131.808 101.483 130.773C113.901 126.942 127.184 126.942 139.602 130.773C149.114 133.553 160.552 141.141 159.301 152.636C159.148 154.721 158.283 156.689 156.852 158.212C155.422 159.735 153.511 160.719 151.441 161.001C149.314 173.322 142.856 181.736 134.747 190.652C129.297 196.775 122.418 201.455 114.723 204.275C111.285 205.513 107.633 206.041 103.986 205.828Z" fill="white"/>
<path d="M105.538 207.205H103.986C101.959 207.205 99.9815 206.88 97.854 206.629C96.3772 206.454 94.8504 206.279 93.1985 206.129C87.2665 205.628 83.6873 203.174 83.6122 199.567C83.707 197.842 84.2981 196.181 85.3142 194.784C86.1402 193.407 86.841 192.28 86.5406 191.078C86.3137 190.482 85.9832 189.931 85.5645 189.45C80.2446 182.445 77.7342 173.703 78.5261 164.941C79.318 156.179 83.355 148.029 89.8445 142.093C89.2717 141.53 88.9094 140.787 88.8183 139.989C88.7892 139.278 88.9027 138.568 89.152 137.902C89.4013 137.235 89.7814 136.625 90.27 136.108C93.1706 132.946 96.9132 130.678 101.058 129.571C113.713 125.674 127.248 125.674 139.903 129.571C151.067 132.827 161.754 141.267 160.478 152.786C160.283 154.987 159.406 157.073 157.97 158.751C156.535 160.43 154.611 161.619 152.468 162.153C149.965 174.825 142.807 183.59 135.623 191.503C130.05 197.779 123.006 202.572 115.124 205.452C112.054 206.588 108.811 207.181 105.538 207.205ZM92.0972 140.49C92.3392 140.487 92.5776 140.548 92.7886 140.667C92.9995 140.786 93.1754 140.958 93.2986 141.166C93.4519 141.418 93.5132 141.716 93.4721 142.008C93.431 142.3 93.2901 142.569 93.0733 142.769C86.5271 148.093 82.2873 155.739 81.2381 164.114C80.1889 172.489 82.4112 180.946 87.4417 187.722C88.1184 188.495 88.6296 189.398 88.9435 190.376C89.1072 191.367 89.0602 192.38 88.8058 193.351C88.5513 194.322 88.095 195.229 87.4667 196.011C86.7247 197.027 86.2589 198.217 86.1151 199.467C86.1151 202.798 92.2223 203.474 93.4237 203.599C95.0757 203.599 96.6525 203.925 98.1543 204.1C100.207 204.351 102.159 204.576 104.111 204.651C107.57 204.863 111.036 204.369 114.298 203.199C121.788 200.469 128.48 195.916 133.771 189.951C142.682 180.159 148.213 172.27 150.166 160.925C150.211 160.642 150.353 160.382 150.567 160.191C150.781 159.999 151.055 159.887 151.342 159.874C153.105 159.596 154.722 158.73 155.931 157.416C157.14 156.102 157.869 154.417 158 152.636C159.251 141.141 146.762 134.304 139.203 132.101C127.028 128.355 114.009 128.355 101.834 132.101C98.1269 133.045 94.7826 135.067 92.2223 137.911C91.6656 138.454 91.3347 139.187 91.2962 139.964C91.3176 140.09 91.3641 140.21 91.4329 140.318C91.5017 140.426 91.5914 140.518 91.6967 140.59L92.0972 140.49Z" fill="#231F20"/>
<path d="M52.8757 279.831C52.8757 279.831 26.3945 333.774 28.4469 350.303C30.4993 366.831 85.2137 360.32 85.2137 360.32L82.3353 278.379L52.8757 279.831Z" fill="white"/>
<path d="M62.6371 362.875C60.9852 362.875 59.2832 362.875 57.6312 362.875C38.4587 362.274 28.2216 358.116 27.2455 350.553C25.0679 333.849 50.6981 281.609 51.7743 279.405C51.8778 279.205 52.0314 279.036 52.22 278.913C52.4086 278.79 52.6259 278.718 52.8506 278.704L82.3103 277.277C82.4746 277.268 82.6391 277.292 82.7939 277.348C82.9487 277.404 83.0906 277.49 83.2113 277.602C83.3374 277.711 83.4384 277.845 83.5076 277.997C83.5767 278.148 83.6123 278.312 83.6118 278.479L86.4652 360.32C86.4743 360.635 86.3669 360.942 86.1637 361.182C85.9604 361.423 85.6756 361.579 85.3639 361.622C77.8142 362.423 70.229 362.841 62.6371 362.875ZM53.6766 281.083C50.6731 287.269 27.7461 335.152 29.6984 350.153C31.4004 362.474 68.3188 360.971 83.9622 359.243L81.1339 279.831L53.6766 281.083Z" fill="#231F20"/>
<path d="M158.5 620.821L159.927 655.881C159.927 655.881 225.554 656.357 221.724 651.574C217.895 646.791 188.185 625.704 188.185 625.704L183.404 599.809L158.5 620.821Z" fill="white"/>
<path d="M168.362 657.108H159.927C159.604 657.109 159.293 656.984 159.059 656.76C158.826 656.535 158.689 656.23 158.676 655.906L157.249 620.846C157.242 620.658 157.276 620.47 157.35 620.297C157.423 620.124 157.534 619.969 157.674 619.844L182.704 598.758C182.872 598.618 183.073 598.524 183.288 598.485C183.503 598.445 183.724 598.462 183.93 598.532C184.133 598.611 184.312 598.74 184.452 598.906C184.592 599.072 184.688 599.271 184.731 599.484L189.437 624.878C193.191 627.557 219.097 646.064 222.801 650.697C223.02 650.963 223.159 651.284 223.204 651.625C223.248 651.967 223.195 652.313 223.051 652.626C221.149 656.382 190.989 657.108 168.362 657.108ZM161.129 654.604C187.485 654.754 215.568 653.753 220.273 651.774C216.068 647.367 197.246 633.618 187.46 626.731C187.328 626.642 187.216 626.527 187.13 626.394C187.044 626.26 186.986 626.111 186.959 625.955L182.554 602.188L159.777 621.497L161.129 654.604Z" fill="#231F20"/>
<path d="M170.389 374.996L195.844 630.437L153.694 631.389L105.813 450.927L79.2818 632.942L30.4243 630.437C30.4243 630.437 38.9343 528.837 43.3645 490.195C47.7948 451.553 54.6528 384.662 54.6528 384.662L170.389 374.996Z" fill="#231F20"/>
<path d="M154.696 178.957C154.696 178.957 163.481 193.457 161.429 196.312C159.376 199.167 153.044 196.963 153.044 196.963" fill="white"/>
<path d="M157.624 199.016C155.92 198.985 154.231 198.69 152.618 198.14C152.342 198.007 152.124 197.778 152.005 197.496C151.886 197.213 151.875 196.897 151.974 196.607C152.073 196.317 152.274 196.073 152.541 195.922C152.807 195.77 153.119 195.722 153.419 195.786C155.221 196.387 159.251 197.138 160.377 195.56C161.504 193.983 157.999 186.87 153.594 179.608C153.483 179.468 153.403 179.307 153.359 179.134C153.316 178.961 153.31 178.78 153.342 178.605C153.373 178.429 153.442 178.263 153.543 178.116C153.645 177.969 153.776 177.846 153.929 177.754C154.082 177.662 154.253 177.604 154.43 177.584C154.607 177.563 154.786 177.581 154.956 177.635C155.126 177.69 155.282 177.78 155.414 177.9C155.546 178.02 155.651 178.167 155.722 178.331C158.5 182.888 164.707 193.857 162.43 197.038C161.842 197.725 161.1 198.262 160.265 198.606C159.429 198.95 158.524 199.091 157.624 199.016Z" fill="#231F20"/>
<path d="M153.419 160.224C159.176 165.233 157.048 175.501 156.748 182.162C156.298 191.528 155.647 200.895 154.796 210.261C154.245 216.171 138.852 215.72 136.199 213.842L137.726 237.408L105.863 223.759L107.941 196.687C107.941 196.687 118.103 197.138 124.585 185.268C131.068 173.397 131.518 154.765 131.518 154.765C131.518 154.765 147.813 155.266 153.419 160.224Z" fill="white"/>
<path d="M137.726 238.66C137.561 238.697 137.39 238.697 137.225 238.66L105.388 225.011C105.147 224.905 104.944 224.729 104.806 224.505C104.667 224.282 104.6 224.022 104.612 223.759L106.689 196.687C106.715 196.364 106.865 196.063 107.108 195.848C107.35 195.634 107.667 195.521 107.991 195.535C108.366 195.535 117.477 195.761 123.484 184.767C129.741 173.297 130.267 155.015 130.267 154.715C130.27 154.549 130.307 154.385 130.376 154.235C130.444 154.084 130.544 153.949 130.667 153.838C130.783 153.719 130.925 153.629 131.081 153.572C131.237 153.516 131.403 153.495 131.568 153.513C132.244 153.513 148.363 154.089 154.245 159.298C159.501 163.931 158.8 172.07 158.25 178.631C158.25 179.883 158.05 181.135 158 182.212C157.549 191.553 156.898 201.02 156.047 210.361C155.895 211.356 155.471 212.29 154.822 213.059C154.172 213.828 153.323 214.402 152.368 214.718C147.627 216.438 142.49 216.751 137.576 215.62L139.027 237.257C139.037 237.426 139.013 237.595 138.957 237.754C138.9 237.913 138.812 238.059 138.697 238.183C138.582 238.307 138.444 238.406 138.29 238.475C138.136 238.544 137.97 238.582 137.801 238.585L137.726 238.66ZM107.19 222.958L136.324 235.479L134.972 213.942C134.946 213.706 134.991 213.467 135.103 213.256C135.214 213.046 135.387 212.875 135.598 212.765C135.796 212.638 136.026 212.57 136.261 212.57C136.497 212.57 136.727 212.638 136.925 212.765C141.628 214.228 146.679 214.122 151.317 212.465C152.718 211.838 153.469 211.037 153.544 209.96C154.42 200.669 155.071 191.228 155.497 181.937C155.497 180.785 155.647 179.432 155.747 178.23C156.272 172.245 156.898 164.807 152.593 161.001C148.238 157.144 136.549 156.142 132.72 155.992C132.495 160.475 131.318 175.451 125.687 185.793C120.055 196.136 112.146 197.564 109.092 197.814L107.19 222.958Z" fill="#231F20"/>
<path d="M202.301 288.07C202.301 288.07 164.632 248.251 149.74 233.276C135.898 219.402 95.6509 206.78 77.3294 226.664C77.3294 226.664 47.294 268.712 41.4121 293.154L58.9327 303.948C55.0973 332.912 52.8413 362.064 52.1748 391.274C85.4139 417.569 170.389 374.996 170.389 374.996L162.705 314.892L176.446 328.665L202.301 288.07Z" fill="#E78F34"/>
<path d="M154.846 203.249C154.846 203.249 147.337 207.431 143.833 199.768L154.846 203.249Z" fill="white"/>
<path d="M150.366 205.653C149.518 205.647 148.675 205.521 147.863 205.277C146.694 204.858 145.627 204.194 144.734 203.33C143.841 202.467 143.141 201.423 142.682 200.269C142.613 200.119 142.574 199.957 142.567 199.792C142.561 199.628 142.587 199.463 142.644 199.309C142.701 199.154 142.787 199.012 142.899 198.891C143.011 198.77 143.146 198.672 143.295 198.603C143.445 198.534 143.606 198.495 143.771 198.489C143.935 198.482 144.1 198.508 144.254 198.565C144.409 198.622 144.551 198.709 144.672 198.821C144.793 198.933 144.89 199.067 144.96 199.217C145.283 200.043 145.775 200.792 146.404 201.418C147.034 202.043 147.786 202.53 148.614 202.848C150.508 203.305 152.505 203.047 154.22 202.122C154.514 201.968 154.855 201.935 155.173 202.028C155.49 202.121 155.759 202.335 155.922 202.623C156.006 202.763 156.059 202.919 156.08 203.081C156.102 203.242 156.089 203.407 156.045 203.564C156 203.721 155.924 203.867 155.822 203.994C155.719 204.12 155.591 204.225 155.447 204.3C153.887 205.154 152.144 205.618 150.366 205.653Z" fill="#231F20"/>
<path d="M136.524 184.291C136.352 181.934 135.528 179.671 134.147 177.755C133.305 176.134 132.216 174.656 130.918 173.372C130.268 172.724 129.481 172.229 128.614 171.926C127.748 171.623 126.824 171.518 125.912 171.619C125.119 171.791 124.371 172.127 123.715 172.606C123.06 173.084 122.512 173.695 122.108 174.399C121.332 175.82 120.871 177.392 120.756 179.007C120.476 182.523 121.122 186.052 122.628 189.242C124.134 192.431 126.449 195.171 129.341 197.188L128.84 196.612" fill="white"/>
<path d="M129.34 198.465C129.089 198.467 128.843 198.388 128.64 198.24C125.559 196.094 123.094 193.177 121.491 189.78C119.888 186.384 119.203 182.626 119.504 178.882C119.64 177.12 120.161 175.41 121.031 173.873C121.513 173.011 122.177 172.265 122.977 171.685C123.776 171.106 124.692 170.707 125.661 170.517C126.76 170.378 127.877 170.49 128.926 170.846C129.975 171.202 130.93 171.791 131.718 172.571C133.098 173.912 134.263 175.457 135.172 177.154C136.672 179.272 137.54 181.773 137.675 184.366C137.675 184.698 137.543 185.017 137.309 185.251C137.074 185.486 136.756 185.618 136.424 185.618C136.092 185.618 135.773 185.486 135.539 185.251C135.304 185.017 135.172 184.698 135.172 184.366C135.001 182.237 134.238 180.199 132.97 178.481C132.189 176.978 131.184 175.601 129.991 174.399C129.475 173.888 128.854 173.496 128.171 173.25C127.488 173.003 126.76 172.908 126.036 172.971C125.422 173.106 124.843 173.369 124.338 173.745C123.833 174.121 123.414 174.6 123.108 175.15C122.42 176.398 122.018 177.784 121.932 179.207C121.69 182.284 122.199 185.373 123.415 188.209C124.632 191.044 126.519 193.542 128.915 195.485C129.234 195.518 129.529 195.67 129.741 195.911L130.241 196.487C130.442 196.716 130.553 197.009 130.553 197.313C130.553 197.618 130.442 197.911 130.241 198.14C130.12 198.251 129.978 198.336 129.823 198.392C129.669 198.448 129.505 198.473 129.34 198.465Z" fill="#231F20"/>
<path d="M136.198 213.842C131.681 212.188 127.736 209.266 124.835 205.427C124.835 205.427 124.835 219.727 136.874 224.335L136.198 213.842Z" fill="#231F20"/>
<path d="M136.875 225.587H136.424C123.709 220.729 123.584 205.553 123.584 205.553C123.58 205.281 123.666 205.015 123.829 204.798C123.992 204.58 124.223 204.423 124.485 204.351C124.747 204.278 125.025 204.292 125.278 204.392C125.531 204.491 125.745 204.67 125.887 204.902C128.63 208.435 132.319 211.119 136.524 212.64C136.755 212.723 136.956 212.871 137.102 213.067C137.249 213.263 137.335 213.497 137.35 213.742L138.026 224.26C138.036 224.467 137.996 224.673 137.909 224.86C137.821 225.048 137.69 225.211 137.526 225.337C137.339 225.484 137.112 225.572 136.875 225.587ZM126.513 209.409C126.959 212.082 127.998 214.621 129.553 216.84C131.108 219.058 133.139 220.901 135.498 222.232L135.023 214.719C131.9 213.455 129.021 211.659 126.513 209.409Z" fill="#231F20"/>
<path d="M163.757 319.124C163.419 319.123 163.095 318.988 162.856 318.748C153.301 308.874 144.286 298.491 135.849 287.645C135.656 287.377 135.575 287.044 135.621 286.718C135.668 286.391 135.839 286.095 136.099 285.891C136.365 285.692 136.699 285.607 137.027 285.654C137.356 285.701 137.652 285.876 137.851 286.142C146.224 296.911 155.173 307.218 164.658 317.02C164.774 317.135 164.867 317.271 164.93 317.421C164.994 317.572 165.026 317.734 165.026 317.897C165.026 318.06 164.994 318.222 164.93 318.372C164.867 318.523 164.774 318.659 164.658 318.773C164.541 318.892 164.4 318.985 164.245 319.046C164.09 319.106 163.923 319.133 163.757 319.124Z" fill="#231F20"/>
<path d="M105.113 447.12C104.82 447.134 104.534 447.035 104.312 446.845C103.661 446.319 88.7684 433.622 88.6934 413.587C88.6933 413.26 88.8217 412.945 89.051 412.711C89.2803 412.477 89.5922 412.342 89.9198 412.335C90.083 412.335 90.2445 412.368 90.395 412.431C90.5455 412.494 90.6818 412.587 90.796 412.703C90.9102 412.82 91 412.958 91.0602 413.11C91.1203 413.262 91.1496 413.424 91.1463 413.587C91.1463 432.445 105.738 444.816 105.889 444.917C106.141 445.135 106.297 445.443 106.325 445.775C106.354 446.107 106.251 446.437 106.039 446.695C105.921 446.824 105.778 446.929 105.619 447.002C105.46 447.075 105.288 447.115 105.113 447.12Z" fill="white"/>
<path d="M150.898 172.548C151.277 170.733 151.003 169.141 150.286 168.991C149.568 168.841 148.68 170.19 148.301 172.004C147.922 173.818 148.196 175.411 148.913 175.561C149.63 175.711 150.519 174.362 150.898 172.548Z" fill="#231F20"/>
<path d="M58.6324 296.56H58.4321C58.1059 296.499 57.8163 296.313 57.6248 296.042C57.4332 295.771 57.3547 295.436 57.4059 295.107C57.6813 293.279 64.7145 250.155 72.6238 235.755C72.702 235.609 72.8088 235.481 72.9376 235.378C73.0664 235.275 73.2147 235.199 73.3737 235.155C73.5326 235.11 73.6988 235.098 73.8624 235.12C74.026 235.141 74.1836 235.195 74.3258 235.279C74.4703 235.355 74.5978 235.459 74.7006 235.586C74.8034 235.712 74.8794 235.859 74.9239 236.016C74.9684 236.173 74.9805 236.337 74.9594 236.499C74.9383 236.661 74.8846 236.817 74.8014 236.957C67.1173 250.981 59.9339 295.057 59.7837 295.508C59.7435 295.79 59.6066 296.049 59.3966 296.241C59.1866 296.433 58.9164 296.545 58.6324 296.56Z" fill="#231F20"/>
<path d="M529.888 490.195C530.205 485.464 529.199 480.738 526.984 476.546C525.157 473.516 522.354 471.112 520.852 467.906C518.349 462.347 520.076 455.81 519.475 449.725C518.932 444.619 516.684 439.845 513.093 436.176C509.914 432.971 505.809 430.742 502.756 427.386C497.75 421.877 496.348 414.138 493.52 407.352C489.462 397.627 482.459 389.42 473.496 383.886C478.928 394.83 466.538 408.754 472.17 419.598C473.947 423.054 477.326 425.558 478.652 429.214C481.781 438.005 471.294 447.546 474.648 456.286C476.324 460.644 481.005 463.173 483.183 467.305C486.111 472.865 483.808 479.652 484.034 485.937C484.359 494.627 489.64 502.391 495.923 508.476C499.827 512.208 504.182 515.463 508.437 518.844C513.443 522.901 515.621 527.134 520.051 520.647C526.224 511.671 529.642 501.087 529.888 490.195Z" fill="#231F20"/>
<path d="M535.519 495.203C533.892 488.492 532.741 481.179 535.519 474.843C538.598 467.681 546.332 462.597 547.233 454.809C547.834 449.8 545.256 444.566 546.257 439.557C547.258 434.549 551.263 431.118 554.742 427.411C562.52 418.856 567.147 407.901 567.857 396.358C573.076 402.552 577.299 409.523 580.372 417.018C583.025 424.657 583.075 433.622 578.545 440.334C577.252 441.893 576.19 443.631 575.391 445.493C573.864 450.501 578.094 455.059 580.272 459.767C581.568 462.447 582.11 465.429 581.841 468.394C581.572 471.358 580.502 474.194 578.745 476.596C574.29 482.131 565.755 484.285 563.552 491.021C563.013 493.539 562.761 496.11 562.801 498.684C562.329 503.143 560.538 507.36 557.658 510.795C554.777 514.23 550.939 516.727 546.632 517.968C541.401 519.245 541.501 517.166 540.55 512.734C539.223 506.824 536.996 501.089 535.519 495.203Z" fill="#231F20"/>
<path d="M518.799 446.845C515.07 433.948 513.593 420.449 509.664 407.602C506.318 397.564 502.235 387.787 497.449 378.351L513.443 385.088C518.574 387.267 524.131 389.821 526.558 394.83C530.763 403.57 523.205 414.865 527.635 423.404C529.552 426.208 531.668 428.869 533.967 431.368C538.673 437.98 537.947 447.095 535.369 454.784C534.243 458.089 529.412 475.219 525.082 470.461C523.33 468.557 523.18 461.47 522.454 458.866C521.327 454.834 519.976 450.877 518.799 446.845Z" fill="#231F20"/>
<path d="M527.684 618.316C524.481 597.205 514.469 522.751 514.469 522.1L516.972 521.774C516.972 522.526 526.983 596.904 530.262 617.941L527.684 618.316Z" fill="#231F20"/>
<path d="M531.164 638.251H528.661C528.861 613.208 539.274 517.542 545.281 510.981L547.133 512.684C543.128 517.016 531.414 603.942 531.164 638.251Z" fill="#231F20"/>
<path d="M536.595 633.468H534.092C536.595 579.449 525.031 466.003 524.906 464.876L527.409 464.601C527.534 465.652 538.998 579.274 536.595 633.468Z" fill="#231F20"/>
<path d="M500.127 557.812H559.697L555.542 625.429C554.816 637.149 546.131 646.24 535.669 646.24H524.155C513.693 646.24 505.033 637.149 504.307 625.429L500.127 557.812Z" fill="white"/>
<path d="M535.669 647.642H524.155C513.067 647.642 503.781 637.975 503.006 625.629L498.851 558.012C498.837 557.836 498.86 557.659 498.917 557.492C498.975 557.326 499.067 557.173 499.187 557.043C499.307 556.914 499.453 556.811 499.614 556.74C499.776 556.67 499.951 556.634 500.127 556.635H559.697C560.054 556.64 560.395 556.783 560.648 557.035C560.883 557.305 561.009 557.654 560.999 558.012L556.819 625.629C556.068 637.95 546.782 647.642 535.669 647.642ZM501.504 559.164L505.584 625.429C506.259 636.423 514.419 645.012 524.155 645.012H535.669C545.405 645.012 553.565 636.423 554.241 625.429L558.321 559.114L501.504 559.164Z" fill="#231F20"/>
<path d="M559.923 323.582H437.479L465.086 117.601H587.53L559.923 323.582Z" fill="white"/>
<path d="M559.923 324.909H437.479C437.303 324.91 437.128 324.873 436.968 324.799C436.808 324.726 436.666 324.618 436.553 324.483C436.431 324.355 436.34 324.2 436.288 324.03C436.236 323.861 436.224 323.682 436.252 323.507L463.785 117.5C463.832 117.202 463.984 116.93 464.213 116.732C464.442 116.535 464.734 116.426 465.036 116.424H587.48C587.659 116.425 587.836 116.464 588 116.537C588.164 116.61 588.311 116.717 588.431 116.849C588.657 117.132 588.764 117.491 588.732 117.851L561.199 323.832C561.151 324.135 560.996 324.411 560.761 324.608C560.527 324.806 560.229 324.913 559.923 324.909ZM438.905 322.405H558.821L586.104 118.928H466.187L438.905 322.405Z" fill="#231F20"/>
<path d="M539.223 293.004H468.89C467.723 293.031 466.565 292.801 465.498 292.328C464.431 291.855 463.482 291.151 462.719 290.268C461.956 289.385 461.397 288.343 461.084 287.219C460.77 286.094 460.709 284.914 460.905 283.763L461.857 276.575C462.253 274.053 463.518 271.748 465.433 270.061C467.348 268.373 469.793 267.409 472.344 267.334H542.652C543.819 267.302 544.98 267.53 546.049 268.002C547.118 268.473 548.069 269.177 548.833 270.061C549.597 270.945 550.156 271.989 550.467 273.115C550.779 274.242 550.837 275.424 550.636 276.575L549.685 283.763C549.299 286.285 548.04 288.592 546.128 290.281C544.216 291.97 541.772 292.933 539.223 293.004Z" fill="#E78F34"/>
<path d="M544.28 255.163H473.972C472.804 255.196 471.643 254.968 470.574 254.496C469.505 254.025 468.554 253.321 467.79 252.437C467.026 251.553 466.468 250.509 466.156 249.383C465.844 248.256 465.787 247.074 465.987 245.922L466.938 238.735C467.325 236.208 468.588 233.898 470.505 232.209C472.422 230.52 474.872 229.559 477.426 229.494H547.734C548.9 229.466 550.058 229.697 551.125 230.17C552.192 230.643 553.141 231.347 553.904 232.23C554.668 233.113 555.226 234.155 555.54 235.279C555.853 236.404 555.914 237.584 555.718 238.735L554.767 245.922C554.371 248.445 553.106 250.75 551.19 252.437C549.275 254.125 546.83 255.089 544.28 255.163Z" fill="white"/>
<path d="M544.279 256.416H473.971C472.637 256.439 471.313 256.174 470.09 255.638C468.867 255.102 467.775 254.308 466.888 253.31C466.011 252.286 465.365 251.085 464.993 249.788C464.622 248.492 464.534 247.131 464.735 245.797L465.711 238.61C466.149 235.791 467.561 233.214 469.702 231.329C471.842 229.444 474.575 228.369 477.425 228.292H547.733C549.068 228.268 550.391 228.533 551.614 229.069C552.837 229.605 553.929 230.4 554.816 231.397C555.69 232.423 556.335 233.625 556.706 234.92C557.077 236.216 557.167 237.577 556.969 238.91L555.993 246.098C555.555 248.917 554.143 251.493 552.002 253.378C549.862 255.263 547.129 256.338 544.279 256.416ZM477.425 230.746C475.177 230.807 473.022 231.655 471.334 233.143C469.647 234.63 468.534 236.662 468.189 238.885L467.213 246.073C467.059 247.06 467.118 248.07 467.385 249.033C467.653 249.996 468.123 250.891 468.765 251.657C469.42 252.385 470.224 252.964 471.122 253.353C472.021 253.742 472.992 253.932 473.971 253.911H544.279C546.53 253.849 548.689 252.997 550.377 251.505C552.065 250.013 553.175 247.975 553.515 245.747L554.491 238.56C554.647 237.57 554.586 236.558 554.314 235.594C554.042 234.63 553.564 233.737 552.914 232.975C552.261 232.253 551.46 231.681 550.566 231.296C549.672 230.912 548.706 230.724 547.733 230.746H477.425Z" fill="#D1D3D4"/>
<path d="M549.36 217.223H479.053C477.884 217.254 476.723 217.026 475.653 216.555C474.583 216.083 473.631 215.38 472.865 214.497C472.099 213.613 471.538 212.57 471.223 211.444C470.908 210.317 470.847 209.135 471.043 207.982L472.019 200.794C472.401 198.27 473.658 195.96 475.571 194.27C477.484 192.581 479.931 191.619 482.482 191.553H552.789C553.958 191.522 555.119 191.75 556.189 192.221C557.259 192.693 558.211 193.396 558.977 194.279C559.743 195.163 560.304 196.206 560.619 197.332C560.934 198.459 560.995 199.641 560.799 200.794L559.823 207.982C559.441 210.506 558.184 212.816 556.271 214.506C554.358 216.195 551.911 217.157 549.36 217.223Z" fill="white"/>
<path d="M549.36 218.55H479.052C477.704 218.584 476.365 218.319 475.132 217.774C473.898 217.228 472.801 216.417 471.918 215.397C471.035 214.377 470.389 213.174 470.025 211.875C469.662 210.576 469.591 209.212 469.816 207.882L470.768 200.694C471.21 197.877 472.624 195.304 474.763 193.419C476.902 191.535 479.632 190.459 482.481 190.376H552.789C554.137 190.343 555.476 190.608 556.71 191.153C557.943 191.698 559.041 192.51 559.924 193.53C560.806 194.549 561.453 195.752 561.816 197.052C562.179 198.351 562.251 199.715 562.025 201.045L561.074 208.232C560.631 211.049 559.218 213.623 557.079 215.507C554.939 217.391 552.209 218.468 549.36 218.55ZM482.481 192.881C480.231 192.948 478.076 193.801 476.389 195.292C474.701 196.784 473.589 198.819 473.246 201.045L472.294 208.232C472.142 209.216 472.202 210.221 472.47 211.18C472.737 212.139 473.207 213.029 473.846 213.792C474.501 214.52 475.305 215.098 476.203 215.487C477.102 215.876 478.074 216.067 479.052 216.046H549.36C551.61 215.979 553.766 215.125 555.453 213.634C557.14 212.143 558.252 210.108 558.596 207.882L559.522 200.694C559.698 199.719 559.654 198.717 559.392 197.761C559.131 196.805 558.659 195.92 558.011 195.17C557.362 194.421 556.555 193.826 555.647 193.43C554.739 193.034 553.754 192.846 552.764 192.881H482.481Z" fill="#D1D3D4"/>
<path d="M554.516 179.432H484.183C483.016 179.46 481.858 179.229 480.791 178.756C479.724 178.283 478.775 177.58 478.012 176.696C477.249 175.813 476.69 174.772 476.377 173.647C476.063 172.523 476.002 171.342 476.198 170.191L477.149 163.004C477.541 160.479 478.805 158.172 480.721 156.484C482.637 154.795 485.084 153.832 487.637 153.763H557.945C559.113 153.731 560.273 153.959 561.342 154.43C562.411 154.902 563.362 155.605 564.126 156.49C564.891 157.374 565.449 158.417 565.76 159.544C566.072 160.67 566.13 161.852 565.929 163.004L564.978 170.191C564.592 172.714 563.333 175.021 561.421 176.71C559.509 178.398 557.065 179.362 554.516 179.432Z" fill="white"/>
<path d="M554.516 180.685H484.183C482.819 180.734 481.461 180.481 480.207 179.945C478.952 179.408 477.831 178.6 476.925 177.579C476.052 176.553 475.408 175.351 475.037 174.055C474.666 172.76 474.576 171.4 474.772 170.066L475.748 162.879C476.181 160.055 477.591 157.473 479.731 155.583C481.872 153.693 484.608 152.614 487.462 152.536H557.77C559.105 152.509 560.43 152.773 561.653 153.309C562.876 153.845 563.968 154.641 564.853 155.641C565.73 156.666 566.376 157.867 566.748 159.163C567.119 160.46 567.207 161.821 567.006 163.154L566.054 170.342C565.623 173.135 564.237 175.692 562.134 177.578C560.03 179.464 557.338 180.561 554.516 180.685ZM487.562 155.015C485.312 155.082 483.156 155.936 481.469 157.427C479.782 158.918 478.67 160.953 478.326 163.179L477.375 170.367C477.199 171.34 477.243 172.34 477.503 173.294C477.763 174.248 478.233 175.132 478.879 175.881C479.524 176.63 480.328 177.225 481.233 177.623C482.138 178.02 483.12 178.211 484.108 178.18H554.516C556.759 178.113 558.909 177.263 560.591 175.776C562.274 174.289 563.383 172.261 563.727 170.041L564.703 162.854C564.857 161.866 564.798 160.857 564.531 159.894C564.263 158.93 563.793 158.036 563.151 157.269C562.496 156.541 561.692 155.963 560.794 155.574C559.895 155.185 558.924 154.994 557.945 155.015H487.562Z" fill="#D1D3D4"/>
<path d="M551.588 138.161H497.674C497.342 138.161 497.024 138.029 496.789 137.794C496.555 137.56 496.423 137.241 496.423 136.909C496.429 136.579 496.563 136.264 496.796 136.031C497.03 135.797 497.344 135.663 497.674 135.657H551.588C551.92 135.657 552.238 135.789 552.473 136.024C552.707 136.258 552.839 136.577 552.839 136.909C552.839 137.073 552.807 137.236 552.744 137.388C552.681 137.54 552.589 137.678 552.473 137.794C552.356 137.911 552.218 138.003 552.067 138.066C551.915 138.129 551.752 138.161 551.588 138.161Z" fill="#D1D3D4"/>
</svg>
