<svg width="650" height="712" viewBox="0 0 650 712" fill="none" xmlns="http://www.w3.org/2000/svg">
<g clip-path="url(#clip0_78_24)">
<path d="M319.407 614.229C485.545 614.229 620.227 606.203 620.227 596.3C620.227 586.397 485.545 578.371 319.407 578.371C153.269 578.371 18.5867 586.397 18.5867 596.3C18.5867 606.203 153.269 614.229 319.407 614.229Z" fill="url(#paint0_linear_78_24)"/>
<path fill-rule="evenodd" clip-rule="evenodd" d="M131.299 119.853C106.781 119.853 86.7239 139.837 86.7239 164.266C86.7239 188.694 106.781 208.678 131.299 208.678C136.217 208.678 140.246 212.691 140.246 217.592C140.246 222.493 136.217 226.506 131.299 226.506H107.975C96.0143 226.506 86.2267 236.258 86.2267 248.175C86.2267 260.091 96.0143 269.843 107.975 269.843C118.319 269.843 126.783 278.277 126.783 288.583C126.783 307.388 142.225 322.773 161.099 322.773H362.54C387.059 322.773 407.116 302.79 407.116 278.361C407.116 253.932 387.059 233.949 362.54 233.949H358.228C353.31 233.949 349.281 229.94 349.281 225.035C349.281 220.134 353.305 216.12 358.228 216.12H387.252C399.212 216.12 409 206.368 409 194.452C409 182.55 399.237 172.808 387.297 172.783H363.942C353.598 172.783 345.134 164.35 345.134 154.044C345.134 135.238 329.692 119.853 310.819 119.853H131.299V119.853Z" fill="url(#paint1_linear_78_24)"/>
<path d="M439.664 100.219C439.059 100.002 438.448 99.805 437.83 99.629C437.626 99.5696 437.423 99.5079 437.219 99.4557C436.78 99.3447 436.34 99.2391 435.898 99.1389C435.687 99.0914 435.476 99.0523 435.261 99.0119C434.818 98.9296 434.374 98.8552 433.928 98.7888C433.668 98.7524 433.407 98.7192 433.145 98.6891C432.955 98.6666 432.765 98.6452 432.573 98.6262C432.273 98.5989 431.973 98.5764 431.673 98.5586C431.513 98.5491 431.356 98.5337 431.197 98.5278C430.734 98.5052 430.267 98.4933 429.799 98.4933H214.887C213.41 98.489 211.935 98.6009 210.475 98.828C209.998 98.9017 209.522 98.9868 209.049 99.0831C196.785 101.594 187.345 111.875 186.059 124.57C185.958 125.557 185.909 126.549 185.909 127.541V567.846C185.909 580.419 193.876 591.123 205.027 595.168C205.077 595.187 205.127 595.202 205.177 595.218C205.73 595.414 206.292 595.593 206.858 595.754C207.064 595.813 207.266 595.876 207.473 595.929C207.692 595.984 207.909 596.038 208.126 596.09C208.347 596.142 208.571 596.196 208.794 596.245C209.005 596.292 209.216 596.332 209.431 596.372C209.873 596.455 210.317 596.529 210.761 596.595C211.019 596.633 211.28 596.664 211.543 596.695C211.733 596.716 211.923 596.739 212.115 596.757C212.414 596.785 212.716 596.807 213.017 596.826C213.175 596.835 213.334 596.851 213.492 596.857C213.955 596.878 214.421 596.891 214.891 596.891H429.805C430.805 596.891 431.794 596.841 432.769 596.741C446.406 595.354 457.251 584.483 458.637 570.812C458.737 569.834 458.785 568.843 458.785 567.84V127.541C458.779 114.968 450.812 104.264 439.664 100.22V100.219Z" fill="white" stroke="#E1E4E5" stroke-width="4"/>
<path d="M322.344 573.229C331.571 573.229 339.051 565.749 339.051 556.523C339.051 547.297 331.571 539.816 322.344 539.816C313.117 539.816 305.638 547.297 305.638 556.523C305.638 565.749 313.117 573.229 322.344 573.229Z" fill="white" stroke="#E1E4E5" stroke-width="4"/>
<path d="M348.797 122.158H297.285C296.516 122.158 295.893 122.781 295.893 123.55C295.893 124.319 296.516 124.942 297.285 124.942H348.797C349.566 124.942 350.189 124.319 350.189 123.55C350.189 122.781 349.566 122.158 348.797 122.158Z" fill="white" stroke="#E1E4E5" stroke-width="2.346"/>
<path d="M415.555 143.041H230.525C217.418 143.041 206.792 153.667 206.792 166.774V488.24C206.792 501.347 217.418 511.973 230.525 511.973H415.555C428.663 511.973 439.288 501.347 439.288 488.24V166.774C439.288 153.667 428.663 143.041 415.555 143.041Z" fill="white" stroke="#E1E4E5" stroke-width="4"/>
<path fill-rule="evenodd" clip-rule="evenodd" d="M283.213 273.286V279.042C283.215 280.57 283.823 282.034 284.904 283.114C285.984 284.194 287.449 284.8 288.977 284.8H358.143C359.671 284.8 361.136 284.194 362.217 283.114C363.297 282.034 363.905 280.57 363.907 279.042V273.193C363.907 255.772 343.975 244.453 323.56 244.453C303.145 244.453 283.213 255.778 283.213 273.193V273.286ZM309.295 192.215C301.417 200.093 301.417 212.867 309.295 220.745C317.173 228.623 329.947 228.623 337.825 220.745C345.703 212.867 345.703 200.093 337.825 192.215C329.947 184.337 317.173 184.337 309.295 192.215V192.215Z" fill="#E78F34"/>
<path d="M407.22 315.653H239.9C231.708 315.653 225.067 322.294 225.067 330.487C225.067 338.679 231.708 345.32 239.9 345.32H407.22C415.412 345.32 422.053 338.679 422.053 330.487C422.053 322.294 415.412 315.653 407.22 315.653Z" fill="white" stroke="#E1E4E5" stroke-width="4"/>
<path d="M407.22 360.747H239.9C231.708 360.747 225.067 367.388 225.067 375.58C225.067 383.772 231.708 390.413 239.9 390.413H407.22C415.412 390.413 422.053 383.772 422.053 375.58C422.053 367.388 415.412 360.747 407.22 360.747Z" fill="white" stroke="#E1E4E5" stroke-width="4"/>
<path d="M407.22 405.84H239.9C231.708 405.84 225.067 412.481 225.067 420.673C225.067 428.866 231.708 435.507 239.9 435.507H407.22C415.412 435.507 422.053 428.866 422.053 420.673C422.053 412.481 415.412 405.84 407.22 405.84Z" fill="#E78F34" stroke="#E78F34" stroke-width="4"/>
<path fill-rule="evenodd" clip-rule="evenodd" d="M161.924 366.452H158.607C157.805 366.452 157.16 365.799 157.16 365.004V361.688C157.16 360.885 157.812 360.24 158.607 360.24H161.924C162.719 360.24 163.372 360.893 163.372 361.688V365.004C163.379 365.799 162.726 366.452 161.924 366.452ZM150.424 366.452H147.107C146.312 366.452 145.66 365.799 145.66 365.004V361.688C145.66 360.885 146.312 360.24 147.107 360.24H150.424C151.219 360.24 151.872 360.893 151.872 361.688V365.004C151.872 365.799 151.219 366.452 150.424 366.452ZM138.918 366.452H135.602C134.806 366.452 134.154 365.799 134.154 365.004V361.688C134.154 360.885 134.806 360.24 135.602 360.24H138.918C139.713 360.24 140.366 360.893 140.366 361.688V365.004C140.372 365.799 139.719 366.452 138.918 366.452ZM127.418 366.452H124.102C123.306 366.452 122.654 365.799 122.654 365.004V361.688C122.654 360.885 123.306 360.24 124.102 360.24H127.418C128.22 360.24 128.872 360.893 128.872 361.688V365.004C128.868 365.388 128.714 365.755 128.442 366.026C128.17 366.297 127.802 366.45 127.418 366.452ZM115.918 366.452H112.602C111.799 366.452 111.147 365.799 111.147 365.004V361.688C111.147 360.885 111.799 360.24 112.602 360.24H115.918C116.713 360.24 117.366 360.893 117.366 361.688V365.004C117.366 365.799 116.713 366.452 115.918 366.452ZM150.003 353.913H146.686C145.891 353.913 145.238 353.26 145.238 352.465V349.141C145.238 348.346 145.891 347.693 146.686 347.693H150.003C150.805 347.693 151.451 348.346 151.451 349.141V352.458C151.452 352.649 151.415 352.838 151.343 353.014C151.271 353.191 151.164 353.352 151.03 353.487C150.895 353.622 150.735 353.729 150.559 353.802C150.383 353.875 150.194 353.913 150.003 353.913V353.913ZM138.503 353.913H135.186C134.391 353.913 133.738 353.26 133.738 352.465V349.141C133.738 348.346 134.391 347.693 135.186 347.693H138.503C139.298 347.693 139.951 348.346 139.951 349.141V352.458C139.952 352.649 139.915 352.838 139.843 353.014C139.771 353.191 139.664 353.352 139.53 353.487C139.395 353.622 139.235 353.729 139.059 353.802C138.883 353.875 138.694 353.913 138.503 353.913ZM127.003 353.913H123.686C122.885 353.913 122.233 353.26 122.233 352.465V349.141C122.233 348.346 122.885 347.693 123.686 347.693H127.003C127.799 347.693 128.451 348.346 128.451 349.141V352.458C128.451 353.26 127.799 353.913 127.003 353.913ZM138.918 379.923H135.602C134.806 379.923 134.154 379.271 134.154 378.475V375.159C134.154 374.357 134.806 373.711 135.602 373.711H138.918C139.713 373.711 140.366 374.364 140.366 375.159V378.475C140.372 379.271 139.719 379.923 138.918 379.923ZM127.418 379.923H124.102C123.306 379.923 122.654 379.271 122.654 378.475V375.159C122.654 374.357 123.306 373.711 124.102 373.711H127.418C128.22 373.711 128.872 374.364 128.872 375.159V378.475C128.868 378.859 128.714 379.226 128.442 379.497C128.17 379.768 127.802 379.921 127.418 379.923V379.923Z" fill="#E1E4E5"/>
<path d="M498.698 136.34L526.23 108.807C527.233 107.805 527.233 106.18 526.23 105.177L526.23 105.176C525.227 104.174 523.602 104.174 522.6 105.176L495.067 132.709C494.065 133.711 494.065 135.337 495.067 136.339L495.068 136.34C496.07 137.342 497.695 137.342 498.698 136.34Z" fill="#E1E4E5"/>
<path d="M501.394 116.627L509.334 108.686C510.337 107.684 510.337 106.059 509.334 105.056L509.334 105.055C508.331 104.053 506.706 104.053 505.704 105.055L497.763 112.996C496.761 113.998 496.761 115.623 497.763 116.626L497.764 116.627C498.767 117.629 500.392 117.629 501.394 116.627Z" fill="#E1E4E5"/>
<path d="M122.308 168.055L136.738 153.625C137.264 153.099 137.264 152.247 136.738 151.721C136.213 151.196 135.361 151.196 134.835 151.721L120.404 166.152C119.879 166.678 119.879 167.53 120.404 168.055C120.93 168.581 121.782 168.581 122.308 168.055Z" fill="#E1E4E5"/>
<path d="M123.72 157.724L127.882 153.562C128.408 153.036 128.408 152.184 127.882 151.659C127.357 151.133 126.505 151.133 125.979 151.659L121.817 155.82C121.292 156.346 121.292 157.198 121.817 157.724C122.343 158.249 123.195 158.249 123.72 157.724Z" fill="#E1E4E5"/>
<path d="M401.88 480.6C401.88 484.532 405.068 487.72 409 487.72C412.932 487.72 416.12 484.532 416.12 480.6C416.12 476.668 412.932 473.48 409 473.48C405.068 473.48 401.88 476.668 401.88 480.6Z" fill="#E1E4E5"/>
<path d="M137.253 174.44C137.253 178.372 140.441 181.56 144.373 181.56C148.306 181.56 151.493 178.372 151.493 174.44C151.493 170.508 148.306 167.32 144.373 167.32C140.441 167.32 137.253 170.508 137.253 174.44Z" fill="#E1E4E5"/>
<path d="M69.9671 460.161C73.081 459.327 74.929 456.126 74.0946 453.012C73.2602 449.898 70.0595 448.05 66.9455 448.885C63.8316 449.719 61.9837 452.92 62.818 456.034C63.6524 459.148 66.8532 460.996 69.9671 460.161Z" fill="#E1E4E5"/>
<path d="M391.577 247.892C392.295 253.436 394.215 260.12 397.324 262.39C400.851 264.966 401.94 267.701 401.94 267.701L405.524 266.598L409.808 265.277C409.808 265.277 409.814 264.839 409.788 264.112C409.755 263.152 409.678 262.194 409.558 261.241C409.558 261.241 408.741 259.485 409.886 257.778C411.03 256.076 411.556 253.153 410.75 251.111C409.949 249.075 409.782 244.464 409.024 244.427C407.187 244.325 408.446 250.895 407.431 251.82C406.519 252.665 405.738 252.124 405.599 252.008L405.57 251.985C401.122 248.661 397.831 235.532 394.805 236.505C393.678 236.866 391.268 245.532 391.577 247.892V247.892ZM572.435 384.321C572.435 384.321 568.637 390.894 570.338 394.685C572.035 398.479 577.922 403.534 579.441 405.518C580.954 407.499 586.09 412.731 588.159 409.364C590.228 406.005 586.575 397.072 584.043 393.705C581.514 390.33 581.273 384.542 581.273 384.542L572.435 384.321Z" fill="#F8AE9D"/>
<path d="M570.004 393.591C570.004 393.591 570.294 400.833 570.638 402.767C570.985 404.704 571.326 404.112 572.651 402.812C573.975 401.511 573.96 397.721 574.456 397.472C574.953 397.221 570.004 393.591 570.004 393.591V393.591Z" fill="#F8AE9D"/>
<path d="M503.568 247.1C503.568 247.1 459.264 294.856 445.471 302.339L410.722 261.322C410.722 261.322 404.199 261.779 400.115 267.28C400.115 267.28 413.597 325.13 438.196 333.141C462.794 341.154 512.943 284.826 512.943 284.826L503.568 247.1V247.1ZM462.26 597.16H507.756C509.941 594.584 509.136 585.071 508.808 581.96C508.739 581.333 508.693 580.972 508.693 580.972C508.693 580.972 493.157 568.976 491.024 578.162C490.959 578.448 490.883 578.732 490.793 579.011C488.108 587.603 476.047 591.507 469.087 592.595C464.555 593.301 462.881 595.573 462.26 597.16V597.16Z" fill="#63472B"/>
<path d="M492.89 597.16H538.386C540.572 594.584 539.766 585.071 539.438 581.96C539.37 581.333 539.323 580.972 539.323 580.972C539.323 580.972 523.787 568.976 521.654 578.162C521.589 578.448 521.513 578.732 521.424 579.011C518.738 587.603 506.677 591.507 499.717 592.595C495.185 593.301 493.511 595.573 492.89 597.16V597.16Z" fill="#63472B"/>
<path d="M474.688 392.6C474.688 392.6 476.863 416.141 479.419 444.436C482.894 482.874 487.073 530.09 487.487 539.034C488.204 554.566 491.068 579.409 491.068 579.409C491.068 579.409 497.868 585.311 511.479 582.823C511.479 582.823 523.612 547.357 527.076 509.829L527.235 507.975C530.459 469.776 535.467 389.333 535.467 389.333L474.688 392.6V392.6Z" fill="#E78F34"/>
<path d="M487.026 394.212C487.026 394.212 491.128 417.519 495.999 445.535C502.62 483.596 510.662 530.353 511.801 539.233C513.776 554.653 518.685 579.216 518.685 579.216C518.685 579.216 526.081 584.691 539.739 581.41C539.739 581.41 549.245 545.387 549.763 507.823L549.776 505.969C549.995 467.751 548.641 387.374 548.641 387.374L487.026 394.212V394.212Z" fill="#E78F34"/>
<path d="M494.073 255.699C509.705 260.636 535.503 246.719 535.503 246.719C535.503 246.719 522.344 236.494 523.097 213.998L511.011 223.741L502.799 230.356C502.799 230.356 502.831 234.259 503.729 241.095C503.968 242.892 504.401 245.702 503.053 247.141C497.818 252.728 494.073 255.699 494.073 255.699Z" fill="#F8AE9D"/>
<path d="M498.019 229.989C498.019 229.989 523.845 234.281 526.269 218.156C528.694 202.03 533.658 191.724 517.273 188.303C500.887 184.883 496.747 190.549 494.63 195.735C492.514 200.92 491.367 228.457 498.019 229.989V229.989Z" fill="#F8AE9D"/>
<path d="M472.248 400.943C472.719 401.332 473.266 401.57 473.894 401.57C479.767 401.49 496.888 404.753 511.374 403.265C523.586 402.09 534.401 398.474 546.007 393.272C547.549 392.579 551.095 390.685 551.019 388.963C550.964 387.074 550.78 384.341 550.542 380.893C549.72 368.909 548.291 348.301 549.688 324.521C549.936 320.094 550.071 315.704 550.087 311.379C550.206 279.15 543.82 250.807 530.974 241.215C529.875 240.431 523.142 243.721 516.955 246.77C511.238 249.589 506.756 249.887 501.355 248.794L494.724 253.579C488.146 259.684 480.942 267.988 477.808 280.59C475.145 291.318 473.58 310.659 472.719 330.704C472.33 339.787 472.016 348.951 471.935 357.639V357.947C471.859 358.808 471.859 359.75 471.859 360.61C471.544 382.934 471.859 400.628 472.248 400.943V400.943Z" fill="#63472B"/>
<path d="M576.307 387.669C571.405 388.334 566.174 387.647 566.174 387.647C566.174 387.647 554.354 342.362 552.734 338.196C551.115 334.03 513.008 283.604 513.008 283.604L532.506 241.957C532.506 241.957 572.461 318.391 576.351 329.032C582.779 346.613 583.134 385.223 583.134 385.223C583.134 385.223 580.159 387.149 576.307 387.669ZM529.175 212.379C527.769 215.286 523.69 215.716 524.066 212.509C524.493 208.86 524.489 204.087 521.522 204.974C518.555 205.862 518.405 208.239 517.186 206.853C515.968 205.467 515.947 199.621 507.112 199.209C498.279 198.803 494.69 201.878 490.587 200.07C488.128 198.989 487.062 196.327 486.604 194.365C486.475 193.81 486.878 193.034 487.25 193.467C487.601 193.876 488.483 193.851 488.231 193.374C486.676 190.422 484.349 183.977 490.278 179.176C498.214 172.75 506.301 176.957 510.891 177.232C521.008 177.845 527.542 178.451 530.843 185.097C533.581 190.612 533.111 204.235 529.175 212.379Z" fill="#63472B"/>
<path d="M71.4633 528.139C64.8868 534.832 52.5882 533.421 52.5882 533.421C52.5882 533.421 50.9613 521.157 57.5437 514.467C64.1202 507.773 76.4129 509.181 76.4129 509.181C76.4129 509.181 78.0398 521.445 71.4633 528.139V528.139Z" fill="url(#paint2_linear_78_24)"/>
<path d="M579.287 555.36C583.547 555.36 587 551.907 587 547.647C587 543.387 583.547 539.933 579.287 539.933C575.027 539.933 571.573 543.387 571.573 547.647C571.573 551.907 575.027 555.36 579.287 555.36Z" fill="#E1E4E5"/>
<path d="M222.125 319.109L203.723 314.064L217.983 324.604C208.451 337.163 198.543 350.731 197.639 366.738C197.324 371.963 196.691 376.917 195.637 381.541L173.908 386.254L168.245 387.473L175.504 388.076L193.393 389.581C192.144 393.271 190.668 396.735 188.95 399.941C180.925 415.03 166.845 458.85 151.5 461.305H151.486C151.019 460.371 129.049 417.168 149.332 351.092C151.953 342.603 155.445 334.408 159.753 326.637C159.888 326.382 160.024 326.141 160.16 325.9C184.795 281.9 229.457 260.561 235.571 282.999C238.929 295.287 231.37 306.836 222.125 319.109V319.109Z" fill="#E78F34"/>
<path d="M188.952 399.972C176.86 438.822 166.845 458.88 151.502 461.335H151.486C150.869 461.335 117.258 460.853 146.502 355.264C148.956 346.425 155.416 334.438 159.753 326.668C159.889 326.412 160.024 326.171 160.16 325.93C158.834 337.058 158.232 353.637 163.111 368.651C163.111 368.651 166.469 377.098 173.908 386.284L168.246 387.504L175.504 388.106C179.104 392.247 183.561 396.463 188.952 399.972V399.972Z" fill="#E78F34"/>
<path d="M151.26 512.067C150.19 361.092 203.798 288.797 232.214 277.503" stroke="#E78F34" stroke-width="2.5" stroke-miterlimit="10"/>
<path d="M151.14 368.906L141.035 378.016L151.381 374.885C152.164 406.567 146.442 436.684 131.067 439.455C110.678 443.174 99.2634 388.783 98.5562 350.475L113.132 354.27L98.6914 344.722C98.7662 342.344 98.9027 335.432 99.083 333.323C101.1 310.796 108.675 287.816 122.273 273.511C130.735 287.501 137.963 303.629 143.083 319.591C147.374 332.932 150.266 350.912 151.14 368.906V368.906Z" fill="#E78F34"/>
<path d="M99.0676 333.323L143.083 319.591C137.978 303.629 130.721 287.516 122.273 273.511C108.69 287.816 101.086 310.796 99.0676 333.323Z" fill="#E78F34"/>
<path d="M124.758 281.207C130.781 344.768 133.325 465.686 129.667 509.326" stroke="#E78F34" stroke-width="2.5" stroke-miterlimit="10"/>
<path d="M111.039 461.454C99.4141 466.213 79.8827 440.93 64.8548 407.802C63.9845 405.857 63.1312 403.904 62.2951 401.944C60.6584 398.096 59.1121 394.21 57.6576 390.289L67.0382 388.769L54.8263 382.354C48.2462 362.792 43.9243 342.493 43.954 325.147L88.9334 334.151C99.6253 351.679 108.344 376.059 113.508 398.842L108.886 412.168L115.361 407.711C120.495 434.771 120.013 457.796 111.039 461.454V461.454Z" fill="#E78F34"/>
<path d="M57.2506 335.175C90.2589 404.308 123.221 481.031 120.556 513.691" stroke="#E78F34" stroke-width="2.5" stroke-miterlimit="10"/>
<path d="M118.623 378.848C118.623 378.848 105.283 372.39 98.3105 356.125L71.7173 352.7L96.184 349.973C94.7184 344.75 93.9103 338.778 94.2485 331.885C94.2877 331.104 94.2818 330.347 94.3209 329.567C87.4205 329.698 78.5015 329.613 77.6578 329.584L94.3518 321.027C92.726 277.56 68.8788 250.923 56.0165 282.659C53.3916 289.171 50.0606 296.42 47.0512 305.105L53.6562 324.17L43.9813 314.33C43.1186 317.16 42.9798 317.923 42.8243 319.707C41.4692 335.23 49.2751 350.122 62.3058 358.726C78.6391 369.457 103.649 383.36 118.623 378.848V378.848Z" fill="#E78F34"/>
<path d="M102.927 581.321L108.385 496.49H159.616L165.516 581.24C166.145 590.395 158.889 598.175 149.709 598.175H118.733C109.578 598.175 102.337 590.449 102.927 581.321Z" fill="white" stroke="#E1E4E5" stroke-width="4"/>
<path d="M100.131 499.258V488.977H168.387V499.258H100.131Z" fill="#E1E4E5" stroke="#E1E4E5" stroke-width="4"/>
</g>
<defs>
<linearGradient id="paint0_linear_78_24" x1="332.235" y1="634.334" x2="332.169" y2="539.348" gradientUnits="userSpaceOnUse">
<stop stop-color="white"/>
<stop offset="1" stop-color="#EEEEEE"/>
</linearGradient>
<linearGradient id="paint1_linear_78_24" x1="254.496" y1="436.541" x2="250.561" y2="-100.933" gradientUnits="userSpaceOnUse">
<stop stop-color="white"/>
<stop offset="1" stop-color="#EEEEEE"/>
</linearGradient>
<linearGradient id="paint2_linear_78_24" x1="45.2237" y1="551.003" x2="92.77" y2="476.47" gradientUnits="userSpaceOnUse">
<stop stop-color="white"/>
<stop offset="1" stop-color="#EEEEEE"/>
</linearGradient>
<clipPath id="clip0_78_24">
<rect width="650" height="712" fill="white"/>
</clipPath>
</defs>
</svg>
