<svg width="783" height="614" viewBox="0 0 783 614" fill="none" xmlns="http://www.w3.org/2000/svg">
<g clip-path="url(#clip0_81_2)">
<path fill-rule="evenodd" clip-rule="evenodd" d="M584.527 126.817C628.651 126.817 664.747 162.621 664.747 206.387C664.747 250.154 628.651 285.957 584.527 285.957C575.676 285.957 568.426 293.149 568.426 301.929C568.426 310.708 575.676 317.899 584.527 317.899H626.503C648.028 317.899 665.642 335.371 665.642 356.721C665.642 378.072 648.028 395.543 626.503 395.543C607.887 395.543 592.654 410.653 592.654 429.118C592.654 462.809 564.864 490.374 530.898 490.374H168.376C124.251 490.374 88.1558 454.57 88.1558 410.804C88.1558 367.037 124.251 331.234 168.376 331.234H176.134C184.987 331.234 192.236 324.052 192.236 315.263C192.236 306.483 184.995 299.292 176.134 299.292H123.903C102.377 299.292 84.764 281.82 84.764 260.47C84.764 239.145 102.333 221.692 123.821 221.649H165.851C184.468 221.649 199.701 206.539 199.701 188.073C199.701 154.382 227.49 126.817 261.457 126.817H584.527Z" fill="url(#paint0_linear_81_2)"/>
<path d="M428.416 301.074L413.892 296.658L350.754 294.801L336.514 298.686L338.372 333.367L370.586 353.911L401.833 353.285L421.476 335.395L425.838 317.657L428.416 301.074Z" fill="#F8AE9D"/>
<path d="M246.129 356.848C250.698 347.429 255.079 339.867 258.985 333.897C266.653 322.134 278.382 313.601 291.938 309.924L343.434 295.975C343.434 295.975 346.109 347.41 381.527 347.41C416.945 347.41 423.847 299.178 423.847 299.178L483.439 322.943C485.487 323.739 499.309 328.515 515.387 362.988C530.708 395.812 537.402 412.622 537.402 412.622L476.006 430.342L472.177 485.529L473.485 517.046L287.14 516.629L288.183 480.601L287.406 425.357L285.074 429.129L223.055 404.264C223.055 404.264 231.037 387.89 246.129 356.848Z" fill="#E78F34"/>
<path d="M387.544 319.423C372.431 319.144 355.261 289.678 355.261 289.678L354.275 213.988C353.486 192.187 367.053 173.613 391.507 173.511L393.777 173.613C416.537 174.698 434.561 191.176 435.17 211.48C435.746 230.377 436.091 251.254 435.351 261.339C433.805 282.216 409.976 278.692 409.976 278.692C409.926 278.692 410.041 289.209 409.976 295.351C409.795 309.146 393.613 319.892 387.544 319.423Z" fill="#F8AE9D"/>
<path d="M361.826 218.14C361.41 217.942 345.131 212.508 344.768 228.58C344.404 244.652 361.445 241.688 361.48 241.226C361.514 240.766 361.826 218.14 361.826 218.14ZM532.111 414.157L557.082 464.247C559.872 469.844 561.178 476.062 560.875 482.308C559.926 501.752 543.867 517.046 524.395 517.046L452.198 515.912L449.652 480.242L504.144 467.109L483.496 428.087L532.111 414.157ZM226.221 405.535C226.221 405.535 210.73 451.531 193.836 493.338C193.494 494.172 193.116 495.727 192.812 496.579C189.001 506.945 200.472 517.046 212.058 517.046L309.685 516.876V485.151L248.955 472.263L270.949 423.444L226.221 405.535Z" fill="#F8AE9D"/>
<path d="M421.894 483.691C421.875 483.805 419.656 483.104 415.959 482.876C412.281 482.63 407.066 483.047 401.871 485.264C396.676 487.482 392.751 490.95 390.4 493.773C388.011 496.597 386.987 498.701 386.893 498.625C386.855 498.606 387.082 498.076 387.594 497.166C388.106 496.256 388.921 494.968 390.078 493.509C392.391 490.571 396.335 486.97 401.643 484.715C406.953 482.46 412.281 482.081 415.997 482.46C417.855 482.63 419.353 482.933 420.358 483.199C421.363 483.444 421.912 483.654 421.894 483.691ZM418.556 476.016C418.518 476.168 416.263 475.05 412.375 474.935C408.507 474.765 403.065 475.94 397.984 479.011C392.903 482.1 389.092 486.004 386.4 488.808C385.11 490.173 384.048 491.31 383.214 492.182C382.456 492.978 382.038 493.413 382.001 493.375C381.963 493.356 382.342 492.863 383.043 492.03C384.031 490.841 385.042 489.673 386.077 488.524C388.712 485.643 392.505 481.645 397.68 478.498C402.857 475.371 408.45 474.234 412.394 474.519C414.366 474.633 415.94 474.992 416.983 475.352C417.513 475.504 417.893 475.694 418.159 475.807C418.424 475.921 418.556 475.996 418.556 476.016Z" fill="#EB996E"/>
<path d="M289.15 479.332H303.163C303.163 479.332 334.789 467.904 341.292 469.003C347.151 469.989 368.596 484.222 372.804 487.045C373.278 487.368 373.62 487.804 373.828 488.334C374.241 489.449 374.204 490.68 373.727 491.769C373.25 492.858 372.368 493.719 371.269 494.172L370.832 494.361L371.023 495.005C371.269 495.801 371.383 496.692 371.344 497.564C371.193 500.577 367.136 501.486 365.6 498.89L366.416 500.33C366.737 500.918 366.909 501.582 366.87 502.245L366.794 503.553C366.753 504.26 366.5 504.939 366.067 505.501C365.634 506.062 365.041 506.479 364.367 506.698C363.726 506.911 363.037 506.933 362.384 506.762C361.731 506.59 361.142 506.232 360.689 505.732C357.978 502.737 352.1 496.749 348.118 496.086C344.592 495.497 338.695 495.422 335.13 495.441C334.247 495.442 333.385 495.711 332.657 496.212C331.93 496.712 331.371 497.422 331.054 498.246C333.404 498.416 349.843 506.982 355.664 510.053C357.466 511.001 358.811 512.706 359.04 514.734C359.248 516.554 358.337 518.468 354.735 517.615C347 515.814 333.102 509.427 333.102 509.427C333.102 509.427 325.934 507.38 321.289 510.659C314.748 515.264 311.752 516.951 306.14 515.094C300.527 513.237 296.394 510.565 296.394 510.565L285.34 509.465C285.302 509.465 274.855 483.35 289.15 479.332Z" fill="#F8AE9D"/>
<path d="M330.92 484.677C330.94 484.79 333.158 484.09 336.855 483.862C340.534 483.616 345.748 484.033 350.944 486.25C356.138 488.468 360.063 491.936 362.415 494.759C364.804 497.583 365.828 499.686 365.922 499.611C365.96 499.592 365.732 499.061 365.22 498.151C364.488 496.87 363.658 495.647 362.736 494.494C360.424 491.557 356.48 487.956 351.171 485.7C345.861 483.446 340.534 483.066 336.817 483.446C335.346 483.573 333.888 483.82 332.457 484.184C331.452 484.45 330.901 484.639 330.92 484.677ZM334.258 477.002C334.296 477.153 336.551 476.035 340.438 475.921C344.307 475.751 349.748 476.925 354.83 479.996C359.911 483.085 363.722 486.989 366.414 489.793C367.704 491.158 368.766 492.295 369.6 493.167C370.358 493.964 370.775 494.398 370.813 494.361C370.851 494.342 370.473 493.849 369.771 493.016C368.784 491.826 367.772 490.657 366.737 489.51C364.102 486.629 360.309 482.63 355.133 479.485C349.957 476.357 344.363 475.22 340.42 475.505C338.448 475.618 336.874 475.977 335.831 476.338C335.301 476.49 334.921 476.679 334.656 476.793C334.39 476.906 334.258 476.983 334.258 477.002Z" fill="#EB996E"/>
<path d="M308.112 517.937H455.226C457.238 517.939 459.173 517.163 460.626 515.771C462.078 514.379 462.936 512.48 463.018 510.47L467.436 409.268C467.627 404.833 464.081 401.119 459.644 401.119H303.978C299.541 401.119 295.995 404.814 296.167 409.249L300.3 510.47C300.47 514.639 303.921 517.937 308.112 517.937Z" fill="#63472B"/>
<path d="M366.945 461.4C366.944 463.376 367.332 465.332 368.087 467.157C368.842 468.982 369.95 470.64 371.348 472.037C372.745 473.434 374.404 474.542 376.23 475.297C378.056 476.052 380.013 476.44 381.989 476.438C383.965 476.44 385.922 476.052 387.749 475.297C389.575 474.542 391.234 473.434 392.631 472.038C394.029 470.641 395.137 468.982 395.892 467.157C396.648 465.332 397.036 463.376 397.034 461.4C397.036 459.425 396.648 457.469 395.892 455.644C395.136 453.819 394.028 452.161 392.631 450.764C391.233 449.367 389.574 448.26 387.748 447.505C385.922 446.75 383.965 446.362 381.989 446.364C373.671 446.364 366.945 453.122 366.945 461.4Z" fill="white"/>
<path d="M367.515 247.422H354.242V304.277H367.515V247.422Z" fill="#F8AE9D"/>
<path d="M362.305 196.621C364.697 199.705 368.915 200.384 372.389 200.995C377.059 201.814 379.37 203.522 381.795 208.105C383.33 211.032 384.865 214.239 387.613 215.825C389.846 217.12 389.766 213.819 390.119 211.263C390.152 211.036 390.198 210.812 390.256 210.59C390.796 208.55 392.971 208.897 393.608 210.911C394.189 212.723 395.434 214.257 397.019 215.11C397.276 215.25 397.552 215.371 397.826 215.319C398.197 215.267 398.488 214.919 398.73 214.606C399.239 213.949 399.744 213.113 400.265 212.231C401.978 209.327 405.221 210.365 407.135 213.142C408.33 214.867 409.752 216.644 411.708 217.045C412.338 217.184 413.13 217.08 413.421 216.47C413.793 215.72 413.211 214.971 413.308 214.204C413.389 213.49 413.696 213.176 414.035 212.566C415.367 210.199 418.414 210.114 420.288 212.081C421.592 213.447 422.951 214.761 424.362 216.017C424.959 216.54 425.832 217.062 426.43 216.54C426.754 216.261 426.834 215.79 426.899 215.337C427.238 213.124 427.561 210.911 427.901 208.697C428.094 207.46 428.758 205.839 429.889 206.153C430.438 206.31 430.762 206.885 431.068 207.408C431.44 208.07 438.082 215.616 438.211 215.041C439.245 210.754 441.363 206.85 442.397 202.563C449.087 174.976 419.4 152.792 396.726 152.67C391.685 152.636 387.08 152.717 382.183 153.885C376.962 155.14 371.452 157.132 366.717 159.937C360.075 163.858 355.048 170.986 356.342 179.49" fill="#63472B"/>
<path d="M374.229 187.295C377.565 190.957 378.448 196.108 378.759 200.974C379.217 208.312 378.596 215.936 375.095 222.451C374.099 224.306 373.362 233.483 371.825 232.976C371.335 232.818 371.416 225.7 370.124 221.865C368.129 215.921 358.938 213.655 354.8 217.411C348.194 223.387 352.069 230.646 354.261 235.163C355.57 237.889 357.646 240.949 358.006 243.833C358.447 247.527 358.579 260.984 356.092 264.122C354.015 266.753 351.808 254.042 349.927 251.536C336.01 232.881 322.665 185.377 346.428 175.074C350.042 173.505 361.195 172.697 364.581 174.694" fill="#63472B"/>
<path fill-rule="evenodd" clip-rule="evenodd" d="M528.621 199.453H533.046C534.116 199.453 534.978 198.584 534.978 197.522V193.099C534.978 192.03 534.108 191.169 533.046 191.169H528.621C528.109 191.17 527.619 191.374 527.257 191.736C526.895 192.098 526.691 192.588 526.689 193.099V197.522C526.689 197.776 526.738 198.027 526.835 198.262C526.932 198.497 527.074 198.71 527.254 198.889C527.433 199.068 527.647 199.211 527.881 199.308C528.116 199.404 528.367 199.454 528.621 199.453ZM543.965 199.453H548.39C548.902 199.451 549.392 199.247 549.754 198.886C550.116 198.524 550.32 198.034 550.322 197.522V193.099C550.322 192.03 549.452 191.169 548.39 191.169H543.965C543.453 191.17 542.963 191.374 542.601 191.736C542.239 192.098 542.035 192.588 542.034 193.099V197.522C542.035 198.034 542.239 198.524 542.601 198.886C542.963 199.247 543.453 199.451 543.965 199.453ZM559.319 199.453H563.744C564.256 199.451 564.746 199.247 565.108 198.886C565.47 198.524 565.674 198.034 565.676 197.522V193.099C565.676 192.03 564.805 191.169 563.744 191.169H559.319C558.807 191.17 558.317 191.374 557.955 191.736C557.593 192.098 557.389 192.588 557.387 193.099V197.522C557.386 197.776 557.436 198.027 557.533 198.262C557.63 198.497 557.772 198.71 557.951 198.889C558.131 199.068 558.344 199.211 558.579 199.308C558.813 199.404 559.065 199.454 559.319 199.453ZM574.663 199.453H579.088C579.6 199.451 580.09 199.247 580.452 198.886C580.814 198.524 581.018 198.034 581.02 197.522V193.099C581.02 192.03 580.15 191.169 579.088 191.169H574.663C573.593 191.169 572.722 192.038 572.722 193.099V197.522C572.727 198.034 572.934 198.524 573.297 198.885C573.66 199.246 574.151 199.45 574.663 199.453ZM590.008 199.453H594.433C595.503 199.453 596.374 198.584 596.374 197.522V193.099C596.374 192.03 595.503 191.169 594.433 191.169H590.008C589.496 191.17 589.006 191.374 588.644 191.736C588.282 192.098 588.078 192.588 588.076 193.099V197.522C588.078 198.034 588.282 198.524 588.644 198.886C589.006 199.247 589.496 199.451 590.008 199.453ZM544.528 182.73H548.953C550.013 182.73 550.885 181.859 550.885 180.799V176.366C550.883 175.855 550.678 175.365 550.317 175.003C549.955 174.642 549.465 174.438 548.953 174.436H544.528C543.457 174.436 542.596 175.306 542.596 176.366V180.79C542.595 181.044 542.644 181.297 542.74 181.532C542.836 181.768 542.978 181.982 543.158 182.162C543.338 182.342 543.551 182.486 543.786 182.583C544.021 182.681 544.273 182.731 544.528 182.73ZM559.872 182.73H564.297C564.809 182.728 565.299 182.524 565.661 182.163C566.023 181.801 566.227 181.311 566.229 180.799V176.366C566.227 175.855 566.022 175.365 565.661 175.003C565.299 174.642 564.809 174.438 564.297 174.436H559.872C559.361 174.438 558.87 174.642 558.509 175.003C558.147 175.365 557.942 175.855 557.94 176.366V180.79C557.939 181.044 557.988 181.297 558.084 181.532C558.18 181.768 558.322 181.982 558.502 182.162C558.682 182.342 558.895 182.486 559.13 182.583C559.365 182.681 559.618 182.731 559.872 182.73ZM575.216 182.73H579.641C580.712 182.73 581.582 181.859 581.582 180.799V176.366C581.582 175.306 580.712 174.436 579.641 174.436H575.216C574.705 174.438 574.214 174.642 573.853 175.003C573.491 175.365 573.287 175.855 573.284 176.366V180.79C573.284 181.859 574.156 182.73 575.216 182.73ZM559.319 217.42H563.744C564.256 217.419 564.746 217.215 565.108 216.853C565.47 216.491 565.674 216.001 565.676 215.49V211.065C565.676 209.996 564.805 209.135 563.744 209.135H559.319C558.807 209.136 558.317 209.341 557.955 209.702C557.593 210.064 557.389 210.554 557.387 211.065V215.49C557.386 215.743 557.436 215.995 557.533 216.229C557.63 216.464 557.772 216.677 557.951 216.856C558.131 217.036 558.344 217.178 558.579 217.275C558.813 217.372 559.065 217.421 559.319 217.42ZM574.663 217.42H579.088C579.6 217.419 580.09 217.215 580.452 216.853C580.814 216.491 581.018 216.001 581.02 215.49V211.065C581.02 209.996 580.15 209.135 579.088 209.135H574.663C573.593 209.135 572.722 210.006 572.722 211.065V215.49C572.727 216.002 572.934 216.491 573.297 216.852C573.66 217.213 574.151 217.417 574.663 217.42Z" fill="#E1E4E5"/>
<path d="M601.973 303.499C602.245 294.999 604.175 286.309 607.572 278.188C651.817 293.699 638.853 275.48 612.084 269.309C619.286 257.263 630.211 247.49 644.506 242.969C661.819 237.501 682.337 249.954 695.572 268.335C674.755 276.969 679.184 304.447 700.763 276.483C705.084 284.225 708.047 292.563 709.052 300.873C711.58 321.339 702.149 341.425 671.629 350.358C622.439 364.841 600.887 335.523 601.973 303.499ZM632.901 293.05C619.911 293.429 638.093 307.966 647.822 300.928C653.91 296.488 645.919 292.67 632.901 293.05Z" fill="#E78F34"/>
<path d="M683.505 512.537C685.652 346.839 644.533 242.996 644.533 242.996" stroke="#E78F34" stroke-width="2.5" stroke-miterlimit="10"/>
<path d="M694.505 314.272C701.3 342.941 708.882 326.968 700.675 308.128C714.018 296.703 733.587 290.749 755.3 297.11C772.83 302.254 781.146 314.652 782.506 328.62C754.432 327.266 747.583 345.187 782.642 335.252C780.983 366.491 747.964 401.007 706.816 379.756C676.622 364.163 677.465 334.196 694.505 314.272ZM735.19 352.496C750.083 356.475 750.816 345.512 737.799 343.996C728.531 342.913 720.296 348.517 735.19 352.496Z" fill="#E78F34"/>
<path d="M696.334 459.94C689.511 355.908 749.084 303.526 749.084 303.526" stroke="#E78F34" stroke-width="2.5" stroke-miterlimit="10"/>
<path d="M577.285 375.492C562.826 356.65 562.473 325.817 573.588 316.613C584.106 307.897 597.532 306.841 610.469 310.414C607.18 330.013 623.214 338.622 619.383 313.663C649.522 327.117 672.052 363.581 638.516 381.61C612.969 395.307 594.705 391.924 582.83 381.502C626.095 378.74 603.945 367.073 577.285 375.492ZM588.591 343.793C575.98 347.501 577.747 351.453 591.716 352.509C605.658 353.565 604.87 339.055 588.591 343.793Z" fill="#E78F34"/>
<path d="M659.48 458.991C663.639 355.906 582.215 318.224 582.215 318.224" stroke="#E78F34" stroke-width="2.5" stroke-miterlimit="10"/>
<path d="M741.935 447.659H613.5L631.19 497.591C635.719 510.37 647.87 518.945 661.492 518.945H693.969C707.594 518.945 719.743 510.395 724.271 497.592L726.5 498.381L724.271 497.592L741.935 447.659Z" fill="white" stroke="#E1E4E5" stroke-width="4"/>
<path d="M760.074 445.91V438.21H596.957V445.91H760.074Z" fill="#E1E4E5" stroke="#E1E4E5" stroke-width="4"/>
<path d="M107.815 448.671L113.224 515.915H150.652L156.072 448.671H107.815Z" fill="#E78F34"/>
<path d="M104.72 442.608H159.741V452.409H104.72V442.608ZM108.49 442.608H155.972L153.199 431.589H111.274L108.49 442.608Z" fill="#63472B"/>
<path d="M121.226 482.919C121.226 484.363 121.51 485.793 122.063 487.128C122.616 488.463 123.427 489.675 124.449 490.697C125.47 491.718 126.684 492.528 128.019 493.081C129.354 493.634 130.785 493.918 132.23 493.918C133.676 493.918 135.107 493.634 136.442 493.081C137.777 492.528 138.99 491.718 140.012 490.697C141.034 489.675 141.845 488.463 142.397 487.128C142.95 485.793 143.235 484.363 143.234 482.919C143.235 481.474 142.951 480.044 142.398 478.709C141.845 477.374 141.034 476.162 140.012 475.14C138.991 474.119 137.777 473.309 136.442 472.756C135.107 472.203 133.676 471.919 132.23 471.92C130.785 471.919 129.354 472.204 128.019 472.756C126.684 473.309 125.47 474.119 124.449 475.14C123.427 476.162 122.616 477.375 122.063 478.709C121.51 480.044 121.226 481.474 121.226 482.919Z" fill="white"/>
<path fill-rule="evenodd" clip-rule="evenodd" d="M219.961 230.673V174.621C219.961 168.814 215.265 164.111 209.467 164.111H146.511C140.714 164.111 136.018 168.814 136.018 174.621V230.673C136.017 232.546 136.518 234.385 137.467 236C138.416 237.616 139.78 238.948 141.417 239.859L172.895 257.373C174.453 258.241 176.208 258.697 177.992 258.697C179.776 258.697 181.53 258.241 183.088 257.373L214.567 239.859C216.203 238.946 217.565 237.613 218.513 235.998C219.461 234.384 219.961 232.545 219.961 230.673Z" fill="#E1E4E5"/>
<path d="M195.437 226.331H160.54M195.437 210.46H160.54H195.437ZM195.437 194.119H160.54H195.437Z" stroke="white" stroke-width="2.677" stroke-linecap="round" stroke-linejoin="round"/>
<path d="M4.90601 515.854H759.072C762.014 515.854 764.4 518.238 764.4 521.179C764.4 524.12 762.014 526.504 759.072 526.504H4.90601C1.96332 526.504 -0.42218 524.12 -0.42218 521.179C-0.42218 518.238 1.96332 515.854 4.90601 515.854Z" fill="#E1E4E5"/>
<path d="M175.705 383.094L197.254 404.633C198.039 405.417 198.039 406.689 197.255 407.473C196.47 408.258 195.198 408.257 194.413 407.473L172.863 385.934C172.079 385.149 172.078 383.877 172.863 383.093C173.648 382.309 174.92 382.309 175.705 383.094Z" fill="#E1E4E5"/>
<path d="M177.814 398.515L184.029 404.726C184.814 405.511 184.814 406.783 184.029 407.567C183.245 408.351 181.972 408.351 181.188 407.566L174.973 401.355C174.188 400.57 174.188 399.299 174.973 398.514C175.757 397.73 177.03 397.73 177.814 398.515Z" fill="#E1E4E5"/>
</g>
<defs>
<linearGradient id="paint0_linear_81_2" x1="362.818" y1="694.205" x2="369.834" y2="-268.75" gradientUnits="userSpaceOnUse">
<stop stop-color="white"/>
<stop offset="1" stop-color="#EEEEEE"/>
</linearGradient>
<clipPath id="clip0_81_2">
<rect width="783" height="614" fill="white"/>
</clipPath>
</defs>
</svg>
